<?xml version="1.0" encoding="UTF-8"?>
<svg width="212px" height="212px" viewBox="0 0 212 212" version="1.1" xmlns="http://www.w3.org/2000/svg" xmlns:xlink="http://www.w3.org/1999/xlink">
    <title>logo</title>
    <defs>
        <polygon id="path-1" points="0 0 17.3076923 0 17.3076923 17.3076923 0 17.3076923"></polygon>
        <polygon id="path-3" points="160.995192 321.990385 321.990385 160.995192 160.995192 0 0 160.995192"></polygon>
        <polygon id="path-5" points="0 0 25 0 25 25 0 25"></polygon>
        <polygon id="path-7" points="160.995192 321.990385 321.990385 160.995192 160.995192 0 0 160.995192"></polygon>
        <polygon id="path-9" points="0 0 15.8653846 0 15.8653846 15.8653846 0 15.8653846"></polygon>
        <polygon id="path-11" points="160.995192 321.990385 321.990385 160.995192 160.995192 0 0 160.995192"></polygon>
        <polygon id="path-13" points="0 0 17.3076923 0 17.3076923 16.8269231 0 16.8269231"></polygon>
        <polygon id="path-15" points="160.995192 321.990385 321.990385 160.995192 160.995192 0 0 160.995192"></polygon>
        <polygon id="path-17" points="0 0 23.5576923 0 23.5576923 23.0769231 0 23.0769231"></polygon>
        <polygon id="path-19" points="160.995192 321.990385 321.990385 160.995192 160.995192 0 0 160.995192"></polygon>
        <polygon id="path-21" points="0 0 23.0769231 0 23.0769231 23.0769231 0 23.0769231"></polygon>
        <polygon id="path-23" points="160.995192 321.990385 321.990385 160.995192 160.995192 0 0 160.995192"></polygon>
        <polygon id="path-25" points="0 0 11.0576923 0 11.0576923 11.0576923 0 11.0576923"></polygon>
        <polygon id="path-27" points="160.995192 321.990385 321.990385 160.995192 160.995192 0 0 160.995192"></polygon>
        <polygon id="path-29" points="0 0 15.8653846 0 15.8653846 15.8653846 0 15.8653846"></polygon>
        <polygon id="path-31" points="160.995192 321.990385 321.990385 160.995192 160.995192 0 0 160.995192"></polygon>
        <polygon id="path-33" points="0 0 16.8269231 0 16.8269231 17.3076923 0 17.3076923"></polygon>
        <polygon id="path-35" points="160.995192 321.990385 321.990385 160.995192 160.995192 0 0 160.995192"></polygon>
        <polygon id="path-37" points="0 0 8.17307692 0 8.17307692 8.17307692 0 8.17307692"></polygon>
        <polygon id="path-39" points="160.995192 321.990385 321.990385 160.995192 160.995192 0 0 160.995192"></polygon>
        <polygon id="path-41" points="0 0 11.0576923 0 11.0576923 11.0576923 0 11.0576923"></polygon>
        <polygon id="path-43" points="160.995192 321.990385 321.990385 160.995192 160.995192 0 0 160.995192"></polygon>
        <polygon id="path-45" points="0 0 7.69230769 0 7.69230769 8.17307692 0 8.17307692"></polygon>
        <polygon id="path-47" points="160.995192 321.990385 321.990385 160.995192 160.995192 0 0 160.995192"></polygon>
        <polygon id="path-49" points="0 0 5.28846154 0 5.28846154 5.76923077 0 5.76923077"></polygon>
        <polygon id="path-51" points="160.995192 321.990385 321.990385 160.995192 160.995192 0 0 160.995192"></polygon>
        <polygon id="path-53" points="0 0 25 0 25 24.5192308 0 24.5192308"></polygon>
        <polygon id="path-55" points="160.995192 321.990385 321.990385 160.995192 160.995192 0 0 160.995192"></polygon>
        <polygon id="path-57" points="0 0 23.0769231 0 23.0769231 23.5576923 0 23.5576923"></polygon>
        <polygon id="path-59" points="160.995192 321.990385 321.990385 160.995192 160.995192 0 0 160.995192"></polygon>
        <polygon id="path-61" points="0 0 17.3076923 0 17.3076923 17.3076923 0 17.3076923"></polygon>
        <polygon id="path-63" points="160.995192 321.990385 321.990385 160.995192 160.995192 0 0 160.995192"></polygon>
        <polygon id="path-65" points="0 0 11.0576923 0 11.0576923 10.5769231 0 10.5769231"></polygon>
        <polygon id="path-67" points="160.995192 321.990385 321.990385 160.995192 160.995192 0 0 160.995192"></polygon>
        <polygon id="path-69" points="0 0 15.8653846 0 15.8653846 15.8653846 0 15.8653846"></polygon>
        <polygon id="path-71" points="160.995192 321.990385 321.990385 160.995192 160.995192 0 0 160.995192"></polygon>
        <polygon id="path-73" points="0 0 5.76923077 0 5.76923077 5.28846154 0 5.28846154"></polygon>
        <polygon id="path-75" points="160.995192 321.990385 321.990385 160.995192 160.995192 0 0 160.995192"></polygon>
        <polygon id="path-77" points="0 0 8.17307692 0 8.17307692 7.69230769 0 7.69230769"></polygon>
        <polygon id="path-79" points="160.995192 321.990385 321.990385 160.995192 160.995192 0 0 160.995192"></polygon>
        <polygon id="path-81" points="0 0 10.5769231 0 10.5769231 11.0576923 0 11.0576923"></polygon>
        <polygon id="path-83" points="160.995192 321.990385 321.990385 160.995192 160.995192 0 0 160.995192"></polygon>
        <polygon id="path-85" points="0 0 200 0 200 200 0 200"></polygon>
        <polygon id="path-87" points="160.995192 321.990385 321.990385 160.995192 160.995192 0 0 160.995192"></polygon>
        <linearGradient x1="50%" y1="45.4965445%" x2="50%" y2="100%" id="linearGradient-89">
            <stop stop-color="#000000" stop-opacity="0.397612885" offset="0%"></stop>
            <stop stop-color="#000000" offset="100%"></stop>
        </linearGradient>
    </defs>
    <g id="Page-1" stroke="none" stroke-width="1" fill="none" fill-rule="evenodd">
        <g id="logo" transform="translate(106.000000, 106.000000) rotate(-93.000000) translate(-106.000000, -106.000000) translate(6.000000, 6.000000)">
            <g id="Clipped" transform="translate(152.403846, 110.096154)">
                <mask id="mask-2" fill="white">
                    <use xlink:href="#path-1"></use>
                </mask>
                <g id="Path"></g>
                <g mask="url(#mask-2)">
                    <g transform="translate(-213.399038, -171.091346)">
                        <mask id="mask-4" fill="white">
                            <use xlink:href="#path-3"></use>
                        </mask>
                        <g id="Path" stroke="none" fill="none"></g>
                        <path d="M228.004808,185.596154 C226.436683,187.162404 224.312644,188.043173 222.096635,188.043173 C219.878702,188.043173 217.754712,187.162404 216.186538,185.596154 C214.620288,184.028029 213.739519,181.90399 213.739519,179.687981 C213.739519,177.471971 214.620288,175.346058 216.186538,173.777885 C217.754663,172.211635 219.878702,171.330865 222.096635,171.330865 C224.312692,171.330865 226.436683,172.211635 228.004808,173.777885 C229.571058,175.34601 230.451827,177.471923 230.451827,179.687981 C230.451827,181.904038 229.571058,184.028029 228.004808,185.596154 Z" id="Path" stroke="none" fill-opacity="0.8" fill="#000000" fill-rule="nonzero" mask="url(#mask-4)"></path>
                    </g>
                </g>
            </g>
            <g id="Clipped" transform="translate(104.807692, 150.000000)">
                <mask id="mask-6" fill="white">
                    <use xlink:href="#path-5"></use>
                </mask>
                <g id="Path"></g>
                <g mask="url(#mask-6)">
                    <g transform="translate(-165.802885, -210.995192)">
                        <mask id="mask-8" fill="white">
                            <use xlink:href="#path-7"></use>
                        </mask>
                        <g id="Path" stroke="none" fill="none"></g>
                        <path d="M186.966346,232.043269 C184.680817,234.328798 181.584135,235.61149 178.351923,235.61149 C175.121731,235.61149 172.023077,234.328798 169.739423,232.043269 C167.455769,229.759615 166.171202,226.661058 166.171202,223.430769 C166.171202,220.200481 167.455769,217.101923 169.739423,214.816346 C172.023077,212.532692 175.121635,211.25 178.351923,211.25 C181.58399,211.25 184.680769,212.532692 186.966346,214.816346 C189.25,217.101875 190.534567,220.200481 190.534567,223.430769 C190.534567,226.661058 189.25,229.759615 186.966346,232.043269 Z" id="Path" stroke="none" fill="#000000" fill-rule="nonzero" mask="url(#mask-8)"></path>
                    </g>
                </g>
            </g>
            <g id="Clipped" transform="translate(133.653846, 91.346154)">
                <mask id="mask-10" fill="white">
                    <use xlink:href="#path-9"></use>
                </mask>
                <g id="Path"></g>
                <g mask="url(#mask-10)">
                    <g transform="translate(-194.649038, -152.341346)">
                        <mask id="mask-12" fill="white">
                            <use xlink:href="#path-11"></use>
                        </mask>
                        <g id="Path" stroke="none" fill="none"></g>
                        <path d="M207.956731,165.552885 C206.520048,166.997067 204.566923,167.812115 202.529327,167.815878 C200.491683,167.819621 198.536683,167.013942 197.094231,165.57351 C195.651923,164.134952 194.840625,162.179952 194.840625,160.14226 C194.840625,158.104615 195.651923,156.15149 197.094231,154.71101 C198.536538,153.272452 200.491538,152.466779 202.529327,152.470516 C204.567115,152.474279 206.520096,153.287452 207.956731,154.73351 C209.385913,156.170192 210.187788,158.115817 210.187788,160.142163 C210.187788,162.170433 209.385865,164.114135 207.956731,165.55274 L207.956731,165.552885 Z" id="Path" stroke="none" fill-opacity="0.7" fill="#000000" fill-rule="nonzero" mask="url(#mask-12)"></path>
                    </g>
                </g>
            </g>
            <g id="Clipped" transform="translate(111.057692, 112.500000)">
                <mask id="mask-14" fill="white">
                    <use xlink:href="#path-13"></use>
                </mask>
                <g id="Path"></g>
                <g mask="url(#mask-14)">
                    <g transform="translate(-172.052885, -173.495192)">
                        <mask id="mask-16" fill="white">
                            <use xlink:href="#path-15"></use>
                        </mask>
                        <g id="Path" stroke="none" fill="none"></g>
                        <path d="M186.514423,187.831731 C184.946298,189.399856 182.81851,190.280673 180.602404,190.280673 C178.384471,190.278795 176.258558,189.396154 174.692308,187.827981 C173.124183,186.257981 172.247163,184.130192 172.249035,181.912115 C172.252794,179.694183 173.137356,177.570192 174.707356,176.003942 C176.279231,174.439567 178.407019,173.562548 180.625144,173.568146 C182.841202,173.573807 184.967067,174.458365 186.529471,176.032115 C188.095721,177.59649 188.974615,179.720529 188.970877,181.934519 C188.96711,184.148702 188.084423,186.270817 186.514423,187.831635 L186.514423,187.831731 Z" id="Path" stroke="none" fill-opacity="0.8" fill="#000000" fill-rule="nonzero" mask="url(#mask-16)"></path>
                    </g>
                </g>
            </g>
            <g id="Clipped" transform="translate(127.403846, 128.846154)">
                <mask id="mask-18" fill="white">
                    <use xlink:href="#path-17"></use>
                </mask>
                <g id="Path"></g>
                <g mask="url(#mask-18)">
                    <g transform="translate(-188.399038, -189.841346)">
                        <mask id="mask-20" fill="white">
                            <use xlink:href="#path-19"></use>
                        </mask>
                        <g id="Path" stroke="none" fill="none"></g>
                        <path d="M208.230769,209.552885 C206.097356,211.688173 203.201442,212.888221 200.181731,212.888221 C197.162019,212.888221 194.265865,211.688173 192.132692,209.552885 C189.997404,207.417596 188.797356,204.521635 188.797356,201.503846 C188.797356,198.484038 189.997404,195.587981 192.132692,193.452885 C194.266106,191.319471 197.162019,190.119423 200.181731,190.119423 C203.201442,190.119423 206.097596,191.319471 208.230769,193.452885 C210.366058,195.588173 211.566106,198.484135 211.566106,201.503846 C211.566106,204.521779 210.366058,207.417788 208.230769,209.552885 Z" id="Path" stroke="none" fill-opacity="0.9" fill="#000000" fill-rule="nonzero" mask="url(#mask-20)"></path>
                    </g>
                </g>
            </g>
            <g id="Clipped" transform="translate(86.057692, 131.250000)">
                <mask id="mask-22" fill="white">
                    <use xlink:href="#path-21"></use>
                </mask>
                <g id="Path"></g>
                <g mask="url(#mask-22)">
                    <g transform="translate(-147.052885, -192.245192)">
                        <mask id="mask-24" fill="white">
                            <use xlink:href="#path-23"></use>
                        </mask>
                        <g id="Path" stroke="none" fill="none"></g>
                        <path d="M166.725962,211.802885 C164.590673,213.938173 161.694712,215.138221 158.676923,215.138221 C155.657115,215.138221 152.761058,213.938173 150.625962,211.802885 C148.490865,209.667596 147.2925,206.773558 147.2925,203.753846 C147.2925,200.734135 148.490673,197.837981 150.625962,195.702885 C152.76125,193.569471 155.657212,192.369423 158.676923,192.369423 C161.694856,192.369423 164.590865,193.569471 166.725962,195.702885 C168.86125,197.838173 170.059423,200.734135 170.059423,203.753846 C170.059423,206.773558 168.86125,209.667788 166.725962,211.802885 Z" id="Path" stroke="none" fill-opacity="0.9" fill="#000000" fill-rule="nonzero" mask="url(#mask-24)"></path>
                    </g>
                </g>
            </g>
            <g id="Clipped" transform="translate(116.346154, 74.038462)">
                <mask id="mask-26" fill="white">
                    <use xlink:href="#path-25"></use>
                </mask>
                <g id="Path"></g>
                <g mask="url(#mask-26)">
                    <g transform="translate(-177.341346, -135.033654)">
                        <mask id="mask-28" fill="white">
                            <use xlink:href="#path-27"></use>
                        </mask>
                        <g id="Path" stroke="none" fill="none"></g>
                        <path d="M186.5625,144.153846 C185.071346,145.658125 182.81774,146.116346 180.857212,145.310673 C178.894712,144.506875 177.612019,142.596971 177.608251,140.478462 C177.602635,138.358173 178.877788,136.444519 180.834663,135.629423 C182.793413,134.81625 185.048894,135.263212 186.547644,136.76375 C188.587163,138.801394 188.592788,142.104615 186.562668,144.153654 L186.5625,144.153846 Z" id="Path" stroke="none" fill-opacity="0.6" fill="#000000" fill-rule="nonzero" mask="url(#mask-28)"></path>
                    </g>
                </g>
            </g>
            <g id="Clipped" transform="translate(92.307692, 93.269231)">
                <mask id="mask-30" fill="white">
                    <use xlink:href="#path-29"></use>
                </mask>
                <g id="Path"></g>
                <g mask="url(#mask-30)">
                    <g transform="translate(-153.302885, -154.264423)">
                        <mask id="mask-32" fill="white">
                            <use xlink:href="#path-31"></use>
                        </mask>
                        <g id="Path" stroke="none" fill="none"></g>
                        <path d="M166.423077,167.740385 C164.971394,169.158269 163.016394,169.943269 160.986058,169.922644 C158.955913,169.901987 157.017837,169.079423 155.594231,167.633365 C154.170721,166.185433 153.378173,164.234183 153.389352,162.204038 C153.400739,160.175769 154.217692,158.233942 155.658125,156.803077 C157.098558,155.373894 159.047933,154.573894 161.076394,154.577631 C163.106538,154.5814 165.052115,155.388942 166.486971,156.82375 C167.938654,158.273558 168.748077,160.245481 168.734952,162.296346 C168.723684,164.347115 167.889856,166.307788 166.423125,167.740577 L166.423077,167.740385 Z" id="Path" stroke="none" fill-opacity="0.7" fill="#000000" fill-rule="nonzero" mask="url(#mask-32)"></path>
                    </g>
                </g>
            </g>
            <g id="Clipped" transform="translate(69.711538, 114.423077)">
                <mask id="mask-34" fill="white">
                    <use xlink:href="#path-33"></use>
                </mask>
                <g id="Path"></g>
                <g mask="url(#mask-34)">
                    <g transform="translate(-130.706731, -175.418269)">
                        <mask id="mask-36" fill="white">
                            <use xlink:href="#path-35"></use>
                        </mask>
                        <g id="Path" stroke="none" fill="none"></g>
                        <path d="M145.024038,190.100962 C143.455913,191.669087 141.331875,192.547981 139.115865,192.547981 C136.899808,192.547981 134.773942,191.669087 133.205769,190.100962 C131.639519,188.534712 130.75875,186.408798 130.75875,184.192788 C130.75875,181.976779 131.639519,179.850865 133.205769,178.284615 C134.773894,176.71649 136.899808,175.837596 139.115865,175.837596 C141.331923,175.837596 143.455913,176.71649 145.024038,178.284615 C146.590288,179.850865 147.471058,181.976779 147.471058,184.192788 C147.471058,186.408798 146.590288,188.534712 145.024038,190.100962 Z" id="Path" stroke="none" fill-opacity="0.8" fill="#000000" fill-rule="nonzero" mask="url(#mask-36)"></path>
                    </g>
                </g>
            </g>
            <g id="Clipped" transform="translate(98.076923, 55.769231)">
                <mask id="mask-38" fill="white">
                    <use xlink:href="#path-37"></use>
                </mask>
                <g id="Path"></g>
                <g mask="url(#mask-38)">
                    <g transform="translate(-159.072115, -116.764423)">
                        <mask id="mask-40" fill="white">
                            <use xlink:href="#path-39"></use>
                        </mask>
                        <g id="Path" stroke="none" fill="none"></g>
                        <path d="M165.875,123.466346 C164.812067,124.527404 163.215769,124.844808 161.82976,124.270144 C160.441923,123.695481 159.538606,122.343317 159.538606,120.840913 C159.538606,119.340385 160.441923,117.986346 161.82976,117.413558 C163.215721,116.838894 164.812019,117.156269 165.875,118.217356 C167.322933,119.667163 167.322933,122.016538 165.875,123.466394 L165.875,123.466346 Z" id="Path" stroke="none" fill-opacity="0.5" fill="#000000" fill-rule="nonzero" mask="url(#mask-40)"></path>
                    </g>
                </g>
            </g>
            <g id="Clipped" transform="translate(157.692308, 71.634615)">
                <mask id="mask-42" fill="white">
                    <use xlink:href="#path-41"></use>
                </mask>
                <g id="Path"></g>
                <g mask="url(#mask-42)">
                    <g transform="translate(-218.687500, -132.629808)">
                        <mask id="mask-44" fill="white">
                            <use xlink:href="#path-43"></use>
                        </mask>
                        <g id="Path" stroke="none" fill="none"></g>
                        <path d="M220.644231,134.509615 C222.14101,133.010962 224.394615,132.562115 226.351442,133.373413 C228.308317,134.184712 229.58351,136.09274 229.58351,138.210913 C229.58351,140.329087 228.308365,142.239231 226.351442,143.048413 C224.394567,143.859712 222.140962,143.41087 220.644231,141.914087 C218.599087,139.868942 218.599087,136.554471 220.644231,134.509279 L220.644231,134.509615 Z" id="Path" stroke="none" fill-opacity="0.6" fill="#000000" fill-rule="nonzero" mask="url(#mask-44)"></path>
                    </g>
                </g>
            </g>
            <g id="Clipped" transform="translate(139.903846, 53.365385)">
                <mask id="mask-46" fill="white">
                    <use xlink:href="#path-45"></use>
                </mask>
                <g id="Path"></g>
                <g mask="url(#mask-46)">
                    <g transform="translate(-200.899038, -114.360577)">
                        <mask id="mask-48" fill="white">
                            <use xlink:href="#path-47"></use>
                        </mask>
                        <g id="Path" stroke="none" fill="none"></g>
                        <path d="M207.283654,121.149038 C206.220721,122.210096 204.624423,122.5275 203.238413,121.954712 C201.852452,121.380048 200.94726,120.02601 200.94726,118.525481 C200.94726,117.024952 201.852452,115.670913 203.238413,115.09625 C204.624375,114.521587 206.220673,114.838962 207.283654,115.900048 C208.731587,117.349856 208.731587,119.699231 207.283654,121.149087 L207.283654,121.149038 Z" id="Path" stroke="none" fill-opacity="0.5" fill="#000000" fill-rule="nonzero" mask="url(#mask-48)"></path>
                    </g>
                </g>
            </g>
            <g id="Clipped" transform="translate(121.634615, 35.096154)">
                <mask id="mask-50" fill="white">
                    <use xlink:href="#path-49"></use>
                </mask>
                <g id="Path"></g>
                <g mask="url(#mask-50)">
                    <g transform="translate(-182.629808, -96.091346)">
                        <mask id="mask-52" fill="white">
                            <use xlink:href="#path-51"></use>
                        </mask>
                        <g id="Path" stroke="none" fill="none"></g>
                        <path d="M186.836538,97.2548077 C184.53976,94.9580288 181.095673,98.4041346 183.39226,100.700962 C185.689038,102.99774 189.133125,99.5516346 186.836538,97.2548077" id="Path" stroke="none" fill-opacity="0.4" fill="#000000" fill-rule="nonzero" mask="url(#mask-52)"></path>
                    </g>
                </g>
            </g>
            <g id="Clipped" transform="translate(63.461538, 152.403846)">
                <mask id="mask-54" fill="white">
                    <use xlink:href="#path-53"></use>
                </mask>
                <g id="Path"></g>
                <g mask="url(#mask-54)">
                    <g transform="translate(-124.456731, -213.399038)">
                        <mask id="mask-56" fill="white">
                            <use xlink:href="#path-55"></use>
                        </mask>
                        <g id="Path" stroke="none" fill="none"></g>
                        <path d="M145.509615,234.278846 C143.225962,236.5625 140.127404,237.847067 136.897115,237.847067 C133.665048,237.847067 130.568269,236.5625 128.282692,234.278846 C125.999038,231.993317 124.714471,228.896635 124.714471,225.664423 C124.714471,222.434231 125.999038,219.335577 128.282692,217.051923 C130.568221,214.768269 133.664904,213.483702 136.897115,213.483702 C140.127308,213.483702 143.225962,214.768269 145.509615,217.051923 C147.793269,219.335577 149.077837,222.434135 149.077837,225.664423 C149.077837,228.89649 147.793269,231.993269 145.509615,234.278846 Z" id="Path" stroke="none" fill="#000000" fill-rule="nonzero" mask="url(#mask-56)"></path>
                    </g>
                </g>
            </g>
            <g id="Clipped" transform="translate(44.711538, 133.173077)">
                <mask id="mask-58" fill="white">
                    <use xlink:href="#path-57"></use>
                </mask>
                <g id="Path"></g>
                <g mask="url(#mask-58)">
                    <g transform="translate(-105.706731, -194.168269)">
                        <mask id="mask-60" fill="white">
                            <use xlink:href="#path-59"></use>
                        </mask>
                        <g id="Path" stroke="none" fill="none"></g>
                        <path d="M125.269231,214.043269 C123.133942,216.178558 120.237981,217.376731 117.220192,217.376731 C114.200385,217.376731 111.304327,216.178558 109.169231,214.043269 C107.035817,211.907981 105.835769,209.012019 105.835769,205.992308 C105.835769,202.974375 107.035817,200.078365 109.169231,197.943269 C111.304519,195.807981 114.200481,194.609808 117.220192,194.609808 C120.238125,194.609808 123.134135,195.807981 125.269231,197.943269 C127.404519,200.078558 128.604567,202.974519 128.604567,205.992308 C128.604567,209.012115 127.404519,211.908173 125.269231,214.043269 Z" id="Path" stroke="none" fill="#000000" fill-rule="nonzero" mask="url(#mask-60)"></path>
                    </g>
                </g>
            </g>
            <g id="Clipped" transform="translate(27.884615, 116.826923)">
                <mask id="mask-62" fill="white">
                    <use xlink:href="#path-61"></use>
                </mask>
                <g id="Path"></g>
                <g mask="url(#mask-62)">
                    <g transform="translate(-88.879808, -177.822115)">
                        <mask id="mask-64" fill="white">
                            <use xlink:href="#path-63"></use>
                        </mask>
                        <g id="Path" stroke="none" fill="none"></g>
                        <path d="M103.567308,192.341346 C102.001058,193.907596 99.8751442,194.788365 97.6591346,194.788365 C95.443125,194.788365 93.3172115,193.907596 91.7509615,192.341346 C90.1828365,190.773221 89.3020192,188.649183 89.3020192,186.433173 C89.3020192,184.217163 90.1827885,182.09125 91.7509615,180.523077 C93.3172115,178.956827 95.443125,178.076058 97.6591346,178.076058 C99.8751442,178.076058 102.001058,178.956827 103.567308,180.523077 C105.133558,182.091202 106.014327,184.217115 106.014327,186.433173 C106.014327,188.649231 105.133558,190.773221 103.567308,192.341346 Z" id="Path" stroke="none" fill-opacity="0.8" fill="#000000" fill-rule="nonzero" mask="url(#mask-64)"></path>
                    </g>
                </g>
            </g>
            <g id="Clipped" transform="translate(75.000000, 76.442308)">
                <mask id="mask-66" fill="white">
                    <use xlink:href="#path-65"></use>
                </mask>
                <g id="Path"></g>
                <g mask="url(#mask-66)">
                    <g transform="translate(-135.995192, -137.437500)">
                        <mask id="mask-68" fill="white">
                            <use xlink:href="#path-67"></use>
                        </mask>
                        <g id="Path" stroke="none" fill="none"></g>
                        <path d="M145.072115,146.389423 C143.580962,147.880577 141.336779,148.3275 139.389423,147.52 C137.441923,146.712452 136.170529,144.811923 136.170529,142.702692 C136.170529,140.593462 137.441923,138.693173 139.389423,137.885385 C141.336923,137.077596 143.581154,137.524808 145.072115,139.015962 C147.107885,141.051731 147.107885,144.353462 145.072115,146.389038 L145.072115,146.389423 Z" id="Path" stroke="none" fill-opacity="0.6" fill="#000000" fill-rule="nonzero" mask="url(#mask-68)"></path>
                    </g>
                </g>
            </g>
            <g id="Clipped" transform="translate(50.480769, 95.673077)">
                <mask id="mask-70" fill="white">
                    <use xlink:href="#path-69"></use>
                </mask>
                <g id="Path"></g>
                <g mask="url(#mask-70)">
                    <g transform="translate(-111.475962, -156.668269)">
                        <mask id="mask-72" fill="white">
                            <use xlink:href="#path-71"></use>
                        </mask>
                        <g id="Path" stroke="none" fill="none"></g>
                        <path d="M124.918269,169.995192 C123.483462,171.43 121.535962,172.235673 119.507692,172.235673 C117.479423,172.235673 115.533846,171.43 114.099038,169.995192 C112.664231,168.560385 111.858558,166.614808 111.858558,164.584615 C111.858558,162.556346 112.664231,160.610769 114.099038,159.175962 C115.533846,157.741154 117.479423,156.935481 119.507692,156.935481 C121.535962,156.935481 123.483413,157.741154 124.918269,159.175962 C126.351202,160.610769 127.15875,162.556346 127.15875,164.584615 C127.15875,166.61476 126.351202,168.560337 124.918269,169.995192 Z" id="Path" stroke="none" fill="#000000" fill-rule="nonzero" mask="url(#mask-72)"></path>
                    </g>
                </g>
            </g>
            <g id="Clipped" transform="translate(79.807692, 37.500000)">
                <mask id="mask-74" fill="white">
                    <use xlink:href="#path-73"></use>
                </mask>
                <g id="Path"></g>
                <g mask="url(#mask-74)">
                    <g transform="translate(-140.802885, -98.495192)">
                        <mask id="mask-76" fill="white">
                            <use xlink:href="#path-75"></use>
                        </mask>
                        <g id="Path" stroke="none" fill="none"></g>
                        <path d="M145.360577,99.5096154 C143.063798,97.2128365 139.617788,100.658942 141.914423,102.955769 C144.211058,105.252596 147.657212,101.806442 145.360577,99.5096154" id="Path" stroke="none" fill-opacity="0.4" fill="#000000" fill-rule="nonzero" mask="url(#mask-76)"></path>
                    </g>
                </g>
            </g>
            <g id="Clipped" transform="translate(56.730769, 58.173077)">
                <mask id="mask-78" fill="white">
                    <use xlink:href="#path-77"></use>
                </mask>
                <g id="Path"></g>
                <g mask="url(#mask-78)">
                    <g transform="translate(-117.725962, -119.168269)">
                        <mask id="mask-80" fill="white">
                            <use xlink:href="#path-79"></use>
                        </mask>
                        <g id="Path" stroke="none" fill="none"></g>
                        <path d="M124.399038,125.721154 C123.345481,126.774712 121.762308,127.09399 120.381971,126.534327 C118.99976,125.974663 118.088942,124.641298 118.066394,123.152019 C118.043858,121.660865 118.91524,120.301202 120.278702,119.70024 C121.642115,119.097404 123.232788,119.371591 124.318269,120.391346 C125.050673,121.080577 125.471346,122.034615 125.486394,123.039327 C125.501418,124.044038 125.110793,125.01125 124.399038,125.721106 L124.399038,125.721154 Z" id="Path" stroke="none" fill-opacity="0.5" fill="#000000" fill-rule="nonzero" mask="url(#mask-80)"></path>
                    </g>
                </g>
            </g>
            <g id="Clipped" transform="translate(33.653846, 78.365385)">
                <mask id="mask-82" fill="white">
                    <use xlink:href="#path-81"></use>
                </mask>
                <g id="Path"></g>
                <g mask="url(#mask-82)">
                    <g transform="translate(-94.649038, -139.360577)">
                        <mask id="mask-84" fill="white">
                            <use xlink:href="#path-83"></use>
                        </mask>
                        <g id="Path" stroke="none" fill="none"></g>
                        <path d="M103.600962,141.274038 C101.565192,139.238269 98.2634615,139.238269 96.2278846,141.274038 C94.1921154,143.309808 94.1921154,146.611538 96.2278846,148.647115 C98.2636538,150.68476 101.565385,150.68476 103.600962,148.647115 C105.636731,146.611346 105.636731,143.309615 103.600962,141.274038" id="Path" stroke="none" fill-opacity="0.6" fill="#000000" fill-rule="nonzero" mask="url(#mask-84)"></path>
                    </g>
                </g>
            </g>
            <g id="Clipped">
                <mask id="mask-86" fill="white">
                    <use xlink:href="#path-85"></use>
                </mask>
                <g id="Path"></g>
                <g mask="url(#mask-86)">
                    <g transform="translate(-60.995192, -60.995192)">
                        <mask id="mask-88" fill="white">
                            <use xlink:href="#path-87"></use>
                        </mask>
                        <g id="Path" stroke="none" fill="none"></g>
                        <path d="M231.461538,231.461538 C212.767788,250.14375 187.420673,260.638462 160.990385,260.632695 C134.561058,260.628937 109.216346,250.125481 90.5336538,231.433654 C71.8475962,212.74375 61.3552885,187.394231 61.3552885,160.967308 C61.3590442,134.537981 71.8610577,109.193269 90.5509615,90.5057692 C109.240865,71.8197115 134.586538,61.3235577 161.017308,61.3235577 C187.446635,61.3235577 212.791346,71.8235577 231.478846,90.5115385 C250.144231,109.218269 260.621635,134.565865 260.621635,160.992308 C260.617879,187.417788 250.13125,212.761538 231.463942,231.468269 L231.461538,231.461538 Z M94.6153846,94.6153846 L94.6153846,94.6135067 C81.4826923,107.740911 72.5375,124.466391 68.9110577,142.675526 C65.2846154,160.886584 67.1400962,179.762545 74.2427885,196.915911 C81.3451923,214.07168 93.3759615,228.735141 108.811058,239.05293 C124.248077,249.370718 142.399038,254.878891 160.964904,254.880815 C179.532692,254.882693 197.683654,249.380334 213.123558,239.065911 C228.5625,228.750045 240.597115,214.09043 247.703365,196.936584 C254.809615,179.782738 256.670673,160.907257 253.048077,142.696199 C249.427308,124.485141 240.486058,107.757738 227.356731,94.6288913 C209.742788,77.0490837 185.875481,67.1745644 160.986538,67.1707183 C136.100962,67.1688404 112.231731,77.0375452 94.6163462,94.6120644 L94.6153846,94.6153846 Z" id="Shape" stroke="none" fill="url(#linearGradient-89)" fill-rule="nonzero" mask="url(#mask-88)"></path>
                    </g>
                </g>
            </g>
        </g>
    </g>
</svg>